<?xml version="1.0" encoding="utf-8"?>
<!-- Generator: Adobe Illustrator 16.0.0, SVG Export Plug-In . SVG Version: 6.00 Build 0)  -->
<!DOCTYPE svg PUBLIC "-//W3C//DTD SVG 1.1//EN" "http://www.w3.org/Graphics/SVG/1.1/DTD/svg11.dtd">
<svg version="1.1" id="Layer_1" xmlns="http://www.w3.org/2000/svg" xmlns:xlink="http://www.w3.org/1999/xlink" x="0px" y="0px"
	 width="64px" height="64px" viewBox="0 0 64 64" enable-background="new 0 0 64 64" xml:space="preserve">
<g>
	<path fill="#07EFC3" d="M32.895,47.552c0,1.951-0.34,3.826-0.965,5.562c-0.166,0.459-0.348,0.906-0.551,1.342
		C28.768,60.091,23.065,64,16.447,64C7.363,64,0,56.638,0,47.552c0-6.617,3.908-12.319,9.543-14.931
		c0.437-0.203,0.883-0.385,1.342-0.551c1.736-0.625,3.61-0.965,5.562-0.965c3.64,0,7,1.184,9.726,3.183l-5.836,5.835
		c-1.187,1.187-1.341,2.896-0.346,3.886c0.421,0.422,1.001,0.654,1.631,0.654c0.797,0,1.619-0.364,2.255-1l5.836-5.836
		C31.711,40.551,32.895,43.913,32.895,47.552z"/>
	<path fill="#07EFC3" d="M48.862,1.162C50.288,0.418,51.911,0,53.631,0C59.359,0,64,4.641,64,10.368
		c0,1.716-0.416,3.336-1.158,4.759c-0.008-0.018-0.02-0.036-0.025-0.053C59.999,8.921,55.054,4.004,48.9,1.18
		C48.886,1.173,48.876,1.169,48.862,1.162z"/>
	<path fill="#EA2E49" d="M10.369,26.815C10.369,12.006,22.375,0,37.185,0c3.057,0,5.993,0.511,8.728,1.455
		c0.521,0.179,1.037,0.372,1.541,0.587c6.549,2.713,11.791,7.955,14.505,14.505c0.214,0.505,0.407,1.019,0.586,1.541
		C63.487,20.823,64,23.758,64,26.815c0,14.81-12.007,26.815-26.815,26.815c-1.301,0-2.578-0.092-3.829-0.271
		c0.63-1.824,0.97-3.777,0.97-5.808c0-4.025-1.343-7.744-3.597-10.74l0.074-0.076c1.895,1.219,4.115,1.879,6.382,1.879
		c6.507,0,11.798-5.293,11.798-11.8c0-2.549-0.812-4.909-2.191-6.839c-0.763-1.069-1.698-2.006-2.767-2.768
		c-1.931-1.38-4.29-2.192-6.84-2.192c-6.508,0-11.8,5.292-11.8,11.798c0,2.264,0.662,4.488,1.878,6.382l-0.076,0.075
		c-2.995-2.256-6.713-3.597-10.739-3.597c-2.031,0-3.982,0.34-5.807,0.97C10.462,29.393,10.369,28.117,10.369,26.815z"/>
</g>
</svg>
